<svg xmlns="http://www.w3.org/2000/svg" xmlns:xlink="http://www.w3.org/1999/xlink" width="72" height="59" viewBox="0 0 72 59"><defs><path id="a" d="M72 28.976V57.5H0V.452h72v28.524z"/></defs><g fill="none" fill-rule="evenodd"><path fill="#DADEE2" d="M29.99 18.507c-3.891-2.303-10.447-5.215-19.576-6.01a1 1 0 0 1-.91-1.084.988.988 0 0 1 1.084-.909c9.504.828 16.35 3.873 20.421 6.28a1.001 1.001 0 0 1-1.019 1.723zm0 26c-3.891-2.303-10.447-5.215-19.576-6.01a1 1 0 0 1-.91-1.084.989.989 0 0 1 1.084-.909c9.504.828 16.35 3.873 20.421 6.28a1.001 1.001 0 0 1-1.019 1.723zm0-6.5c-3.891-2.303-10.447-5.215-19.576-6.01a1 1 0 0 1-.91-1.084.989.989 0 0 1 1.084-.909c9.504.828 16.35 3.873 20.421 6.28a1.001 1.001 0 0 1-1.019 1.723zm0-6.5c-3.891-2.303-10.447-5.215-19.576-6.01a1 1 0 0 1-.91-1.084.99.99 0 0 1 1.084-.909c9.504.828 16.35 3.873 20.421 6.28a1.001 1.001 0 0 1-1.019 1.723zm0-6.5c-3.891-2.303-10.447-5.215-19.576-6.01a1 1 0 0 1-.91-1.084.99.99 0 0 1 1.084-.909c9.504.828 16.35 3.873 20.421 6.28a1.001 1.001 0 0 1-1.019 1.723zm10.65-6.852a1.001 1.001 0 0 1 .35-1.37c4.071-2.408 10.918-5.453 20.422-6.28a.987.987 0 0 1 1.083.908 1 1 0 0 1-.909 1.083c-9.129.796-15.685 3.708-19.576 6.01a1.002 1.002 0 0 1-1.37-.35zm0 26a1.001 1.001 0 0 1 .35-1.37c4.071-2.408 10.918-5.453 20.422-6.28a.987.987 0 0 1 1.083.908 1 1 0 0 1-.909 1.083c-9.129.796-15.685 3.708-19.576 6.01a1.002 1.002 0 0 1-1.37-.35zm0-6.5a1.001 1.001 0 0 1 .35-1.37c4.071-2.408 10.918-5.453 20.422-6.28a.988.988 0 0 1 1.083.908 1 1 0 0 1-.909 1.083c-9.129.796-15.685 3.708-19.576 6.01a1.002 1.002 0 0 1-1.37-.35zm0-6.5a1.001 1.001 0 0 1 .35-1.37c4.071-2.408 10.918-5.453 20.422-6.28a.988.988 0 0 1 1.083.908 1 1 0 0 1-.909 1.083c-9.129.796-15.685 3.708-19.576 6.01a1.002 1.002 0 0 1-1.37-.35zm0-6.5a1.001 1.001 0 0 1 .35-1.37c4.071-2.408 10.918-5.453 20.422-6.28a.99.99 0 0 1 1.083.908 1 1 0 0 1-.909 1.083c-9.129.796-15.685 3.708-19.576 6.01a1.002 1.002 0 0 1-1.37-.35z"/><g transform="translate(0 .048)"><mask id="b" fill="#fff"><use xlink:href="#a"/></mask><path fill="#3C4650" d="M70 50.457c-12.105.111-22.977 2.213-29.097 3.667 4.4-2.6 13.33-6.672 26.097-6.672h1v-40h2v43.005zM2 7.452h2v40h1c12.767 0 21.697 4.072 26.097 6.672-6.12-1.455-16.993-3.556-29.097-3.667V7.452zm4-4.99c16.892.291 27.096 7.906 29 9.455v42.387c-2.258-1.687-12.466-8.574-29-8.843v-43zm31 9.454c1.9-1.552 12.068-9.163 29-9.455v43c-16.533.269-26.742 7.155-29 8.843V11.916zm31-6.464v-5h-1c-17.622 0-28.289 7.523-31 9.694C33.289 7.975 22.622.452 5 .452H4v5H0v47h1c18.616 0 34.543 4.905 34.702 4.955L36 57.5l.298-.093c.159-.05 16.07-4.955 34.702-4.955h1v-47h-4z" mask="url(#b)"/></g></g></svg>