<svg xmlns="http://www.w3.org/2000/svg" width="92" height="60" viewBox="0 -3 92 57"><g fill="none" fill-rule="evenodd"><path fill="#DADEE2" d="M69 9a6.994 6.994 0 0 1 3.013-5.746C72.148 8.098 76.123 12 81 12a9.04 9.04 0 0 0 1.369-.112C81.266 14.309 78.829 16 76 16c-3.86 0-7-3.14-7-7m14 0c0 .242-.013.482-.037.719A6.984 6.984 0 0 1 81 10a7.008 7.008 0 0 1-6.964-7.715A6.965 6.965 0 0 1 76 2c3.86 0 7 3.14 7 7m-1.38 7.018A8.983 8.983 0 0 0 85 9c0-4.963-4.037-9-9-9s-9 4.037-9 9a8.983 8.983 0 0 0 3.38 7.018C64.603 16.341 60 21.142 60 27c0 10.477-8.523 19-19 19v2c8.386 0 15.637-4.943 19-12.067V54h2V27c0-4.962 4.037-9 9-9h10c4.963 0 9 4.038 9 9v27h2V27c0-5.858-4.603-10.659-10.38-10.982"/><path fill="#3C4650" d="M22 27v-8.941c4.493.5 8 4.317 8 8.941v15.477C25.163 39.03 22 33.379 22 27zM9.631 11.888A9.04 9.04 0 0 0 11 12c4.877 0 8.851-3.902 8.987-8.746A6.993 6.993 0 0 1 23 9c0 3.86-3.14 7-7 7-2.83 0-5.267-1.69-6.369-4.112zM16 2c.682 0 1.34.103 1.964.285A7.008 7.008 0 0 1 11 10a6.978 6.978 0 0 1-1.963-.281A7.008 7.008 0 0 1 16 2zm25 44a18.88 18.88 0 0 1-9-2.272V27c0-5.858-4.602-10.659-10.38-10.982A8.983 8.983 0 0 0 25 9c0-4.963-4.038-9-9-9-4.963 0-9 4.037-9 9a8.983 8.983 0 0 0 3.38 7.018C4.603 16.341 0 21.142 0 27v27h2V27c0-4.962 4.037-9 9-9h9v9c0 7.548 4.005 14.177 10 17.879V54h2v-8.03c2.73 1.3 5.781 2.03 9 2.03v-2z"/></g></svg>