<svg xmlns="http://www.w3.org/2000/svg" width="82" height="60" viewBox="0 -3 82 57"><g fill="none" fill-rule="evenodd"><path fill="#DADEE2" d="M9 14a6.993 6.993 0 0 1 3.013-5.746C12.149 13.098 16.123 17 21 17a9.04 9.04 0 0 0 1.369-.112C21.267 19.309 18.829 21 16 21c-3.86 0-7-3.14-7-7zm14 0c0 .242-.012.482-.037.719A6.978 6.978 0 0 1 21 15a7.008 7.008 0 0 1-6.964-7.715A6.965 6.965 0 0 1 16 7c3.86 0 7 3.14 7 7zm3.501 8.473a10.982 10.982 0 0 0-4.884-1.453A8.982 8.982 0 0 0 25 14c0-4.963-4.038-9-9-9-4.963 0-9 4.037-9 9a8.983 8.983 0 0 0 3.38 7.018C4.603 21.341 0 26.142 0 32v22h2V32c0-4.962 4.037-9 9-9h10c1.582 0 3.139.416 4.5 1.204l.865.5 1.002-1.73-.866-.502zm33.13-5.585a9.04 9.04 0 0 0 1.37.112c4.876 0 8.85-3.902 8.986-8.746A6.995 6.995 0 0 1 73 14c0 3.86-3.14 7-7 7-2.83 0-5.266-1.69-6.369-4.112M66.001 7c.681 0 1.339.103 1.963.286A7.008 7.008 0 0 1 61 15a6.979 6.979 0 0 1-1.963-.282A7.008 7.008 0 0 1 66 7m5.62 14.019A8.984 8.984 0 0 0 75 14c0-4.962-4.037-9-9-9-4.962 0-9 4.038-9 9a8.984 8.984 0 0 0 3.383 7.02c-1.72.097-3.397.592-4.884 1.452l-.866.501 1.002 1.731.866-.5A8.99 8.99 0 0 1 61 23h10c4.962 0 9 4.038 9 9v22h2V32c0-5.857-4.603-10.66-10.381-10.981"/><path fill="#3C4650" d="M34.631 11.888a9.04 9.04 0 0 0 1.37.112c4.876 0 8.85-3.902 8.986-8.746A6.995 6.995 0 0 1 48 9c0 3.86-3.14 7-7 7-2.83 0-5.266-1.69-6.369-4.112M41.001 2c.681 0 1.339.103 1.963.286A7.008 7.008 0 0 1 36 10a6.979 6.979 0 0 1-1.963-.282A7.008 7.008 0 0 1 41 2m5.62 14.019A8.984 8.984 0 0 0 50 9c0-4.962-4.037-9-9-9-4.962 0-9 4.038-9 9a8.983 8.983 0 0 0 3.38 7.019C29.603 16.34 25 21.143 25 27v27h2V27c0-4.962 4.038-9 9-9h10c4.963 0 9 4.038 9 9v27h2V27c0-5.857-4.602-10.66-10.38-10.981"/></g></svg>