<svg xmlns="http://www.w3.org/2000/svg" width="67" height="60" viewBox="0 -1 67 59"><g fill="none" fill-rule="evenodd"><path fill="#DADEE2" d="M57 26.5H36a1 1 0 0 1 0-2h21a1 1 0 0 1 0 2m0 5.5H36a1 1 0 0 1 0-2h21a1 1 0 0 1 0 2m-6 5.5H36a1 1 0 0 1 0-2h15a1 1 0 0 1 0 2M57 21H36a1 1 0 0 1 0-2h21a1 1 0 0 1 0 2m0-5.5H36a1 1 0 0 1 0-2h21a1 1 0 0 1 0 2m-38 19c-4.963 0-9-4.037-9-9 0-4.624 3.507-8.441 8-8.94v9.94h9.941c-.5 4.493-4.317 8-8.941 8m8.941-10H20v-7.94a9.013 9.013 0 0 1 7.941 7.94M19 14.5c-6.066 0-11 4.935-11 11 0 6.066 4.934 11 11 11s11-4.934 11-11c0-6.065-4.934-11-11-11"/><path fill="#3C4650" d="M2 44.5v-38h63v38H2zm65 2v-42H34.5v-4h-2v4H0v42h32.5v4.382l-10.342 5.17.894 1.79L33.5 52.618l10.447 5.224.895-1.79-10.342-5.17V46.5H67z"/></g></svg>