<svg xmlns="http://www.w3.org/2000/svg" width="37" height="52" viewBox="0 0 37 52"><g fill="none" fill-rule="evenodd"><path fill="#DADEE2" d="M29 39H8a1 1 0 0 1 0-2h21a1 1 0 0 1 0 2m0 5H8a1 1 0 0 1 0-2h21a1 1 0 0 1 0 2"/><path fill="#3C4650" d="M35 50H2V12h10V2h23v48zM10 3.414V10H3.415L10 3.415zM10.585 0L0 10.585V52h37V0H10.585z"/><path fill="#DADEE2" d="M29 29H8a1 1 0 0 1 0-2h21a1 1 0 0 1 0 2m0-5H8a1 1 0 0 1 0-2h21a1 1 0 0 1 0 2m0-5H8a1 1 0 0 1 0-2h21a1 1 0 0 1 0 2m0 15H8a1 1 0 0 1 0-2h21a1 1 0 0 1 0 2"/></g></svg>