<svg xmlns="http://www.w3.org/2000/svg" width="45" height="60" viewBox="0 0 45 60"><g fill="none" fill-rule="evenodd"><path fill="#DADEE2" d="M37 43H16a1 1 0 0 1 0-2h21a1 1 0 0 1 0 2m0 7H16a1 1 0 0 1 0-2h21a1 1 0 0 1 0 2m0-21H16a1 1 0 0 1 0-2h21a1 1 0 0 1 0 2m0 7H16a1 1 0 0 1 0-2h21a1 1 0 0 1 0 2"/><path fill="#3C4650" d="M43 58H10V20h10V10h23v48zM18 11.414V18h-6.586L18 11.414zM2 50V12h10V2h23v6H18.586L8 18.586V50H2zm8-46.586V10H3.414L10 3.414zM37 8V0H10.586L0 10.586V52h8v8h37V8h-8z"/></g></svg>