<svg xmlns="http://www.w3.org/2000/svg" width="46" height="60" viewBox="0 0 46 60"><g fill="none" fill-rule="evenodd"><path fill="#DADEE2" d="M27 42.5a1 1 0 0 1-.707-1.707l10-10a1 1 0 1 1 1.414 1.414l-10 10A.996.996 0 0 1 27 42.5m5 13a1 1 0 0 1-.707-1.707l13-13a1 1 0 1 1 1.414 1.414l-13 13A.996.996 0 0 1 32 55.5M27 35H8a1 1 0 0 1 0-2h19a1 1 0 0 1 0 2"/><path fill="#DADEE2" d="M27 42H8a1 1 0 0 1 0-2h19a1 1 0 0 1 0 2"/><path fill="#3C4650" d="M34.5 46.414l-3.707-3.707 1.414-1.414 2.293 2.293 5.293-5.293 1.414 1.414z"/><path fill="#3C4650" d="M44 42.873a14.9 14.9 0 0 1-4.394 10.607L36 57.086l-3.606-3.606A14.903 14.903 0 0 1 28 42.873V32.5h16v10.373zM2 50V12h10V2h23v28.5h-9v12.373c0 2.502.54 4.921 1.56 7.127H2zm8-46.586V10H3.414L10 3.414zM37 30.5V0H10.586L0 10.586V52h28.657a17.165 17.165 0 0 0 2.323 2.894l5.02 5.02 5.02-5.02A16.889 16.889 0 0 0 46 42.873V30.5h-9z"/><path fill="#DADEE2" d="M29 21H8a1 1 0 0 1 0-2h21a1 1 0 0 1 0 2m0 7H8a1 1 0 0 1 0-2h21a1 1 0 0 1 0 2"/></g></svg>